<svg width="1472" height="442" viewBox="0 0 1472 442" fill="none" xmlns="http://www.w3.org/2000/svg">
<path d="M221.19 0.722656C99.4039 0.722656 0.671875 99.3649 0.671875 221.044C0.671875 342.728 99.4039 441.362 221.19 441.362C342.99 441.362 441.711 342.728 441.711 221.044C441.711 99.3728 342.99 0.73318 221.188 0.73318L221.19 0.722656ZM322.318 318.489C318.368 324.961 309.889 327.013 303.411 323.041C251.636 291.443 186.457 284.287 109.697 301.809C102.3 303.493 94.9273 298.862 93.242 291.469C91.5488 284.076 96.1649 276.71 103.58 275.026C187.582 255.851 259.636 264.107 317.763 299.599C324.241 303.572 326.295 312.017 322.318 318.489ZM349.309 258.498C344.332 266.58 333.747 269.132 325.663 264.16C266.388 227.758 176.032 217.216 105.921 238.479C96.8285 241.223 87.225 236.103 84.4653 227.035C81.7267 217.95 86.8537 208.373 95.9306 205.611C176.016 181.332 275.578 193.093 343.648 234.885C351.732 239.858 354.286 250.434 349.309 258.501V258.498ZM351.627 196.029C280.555 153.852 163.295 149.974 95.4381 170.551C84.5417 173.852 73.0184 167.707 69.7163 156.82C66.4142 145.928 72.5603 134.422 83.4646 131.113C161.36 107.487 290.851 112.051 372.677 160.585C382.499 166.396 385.712 179.043 379.892 188.823C374.099 198.615 361.407 201.843 351.637 196.029H351.627ZM600.629 204.111C562.552 195.04 555.784 188.673 555.784 175.294C555.784 162.655 567.687 154.149 585.409 154.149C602.578 154.149 619.589 160.608 637.442 173.905C637.969 174.308 638.654 174.468 639.312 174.363C639.997 174.263 640.576 173.897 640.971 173.347L659.562 147.164C660.325 146.085 660.115 144.599 659.088 143.775C637.837 126.745 613.927 118.466 585.962 118.466C544.856 118.466 516.127 143.115 516.127 178.383C516.127 216.203 540.906 229.594 583.723 239.931C620.142 248.316 626.303 255.341 626.303 267.896C626.303 281.814 613.874 290.469 593.862 290.469C571.637 290.469 553.493 282.971 533.217 265.449C532.717 265.002 532.032 264.818 531.4 264.844C530.716 264.897 530.11 265.212 529.689 265.712L508.833 290.496C507.964 291.548 508.07 293.074 509.07 293.969C532.664 315.016 561.683 326.119 593.019 326.119C637.311 326.119 665.934 301.94 665.934 264.502C666.013 232.912 647.08 215.416 600.708 204.145L600.629 204.111ZM766.157 166.594C746.96 166.594 731.213 174.15 718.205 189.633V172.205C718.205 170.83 717.099 169.709 715.729 169.709H681.629C680.259 169.709 679.153 170.83 679.153 172.205V365.846C679.153 367.214 680.259 368.346 681.629 368.346H715.729C717.099 368.346 718.205 367.214 718.205 365.846V304.729C731.213 319.278 746.96 326.408 766.157 326.408C801.838 326.408 837.966 298.967 837.966 246.509C838.019 194.04 801.89 166.591 766.183 166.591L766.157 166.594ZM798.309 246.509C798.309 273.21 781.851 291.864 758.257 291.864C734.952 291.864 717.362 272.368 717.362 246.509C717.362 220.647 734.952 201.156 758.257 201.156C781.456 201.154 798.309 220.223 798.309 246.506V246.509ZM930.526 166.594C884.575 166.594 848.578 201.943 848.578 247.08C848.578 291.732 884.338 326.698 929.973 326.698C976.081 326.698 1012.18 291.469 1012.18 246.509C1012.18 201.701 976.318 166.599 930.526 166.599V166.594ZM930.526 292.127C906.089 292.127 887.656 272.5 887.656 246.496C887.656 220.373 905.457 201.417 929.973 201.417C954.567 201.417 973.106 221.036 973.106 247.067C973.106 273.184 955.199 292.127 930.526 292.127ZM1189.02 169.859V165.152C1189.02 151.305 1194.33 145.13 1206.24 145.13C1213.35 145.13 1219.06 146.541 1225.46 148.672C1226.25 148.919 1227.07 148.795 1227.7 148.324C1228.36 147.853 1228.72 147.098 1228.72 146.299V117.595C1228.72 116.498 1228.04 115.527 1226.96 115.203C1220.22 113.196 1211.58 111.136 1198.63 111.136C1167.16 111.136 1150.49 128.853 1150.49 162.353V169.561H1134.11C1132.74 169.561 1131.61 170.682 1131.61 172.056V201.48C1131.61 202.853 1132.74 203.977 1134.11 203.977H1150.49V320.804C1150.49 322.199 1151.62 323.304 1152.99 323.304H1187.07C1188.46 323.304 1189.57 322.199 1189.57 320.804V203.985H1221.4L1270.17 320.804C1264.64 333.065 1259.19 335.511 1251.77 335.511C1245.76 335.511 1239.42 333.722 1232.96 330.17C1232.36 329.855 1231.62 329.802 1230.99 329.986C1230.33 330.223 1229.78 330.697 1229.51 331.328L1217.95 356.664C1217.4 357.874 1217.88 359.269 1219.03 359.9C1231.09 366.425 1241.97 369.214 1255.43 369.214C1280.6 369.214 1294.53 357.48 1306.78 325.961L1365.92 173.268C1366.23 172.5 1366.13 171.632 1365.65 170.951C1365.21 170.274 1364.44 169.867 1363.63 169.867H1328.13C1327.05 169.867 1326.1 170.543 1325.76 171.54L1289.4 275.289L1249.58 171.471C1249.21 170.506 1248.29 169.867 1247.26 169.867H1189.02V169.859ZM1113.23 169.709H1079.13C1077.76 169.709 1076.63 170.83 1076.63 172.205V320.804C1076.63 322.199 1077.76 323.304 1079.13 323.304H1113.23C1114.6 323.304 1115.73 322.199 1115.73 320.804V172.216C1115.73 170.84 1114.63 169.719 1113.23 169.719V169.709ZM1096.38 102.043C1082.87 102.043 1071.91 112.967 1071.91 126.461C1071.91 139.963 1082.87 150.9 1096.38 150.9C1109.89 150.9 1120.81 139.963 1120.81 126.461C1120.81 112.97 1109.86 102.043 1096.38 102.043ZM1395.04 217.489C1381.56 217.489 1371.05 206.663 1371.05 193.516C1371.05 180.369 1381.69 169.419 1395.17 169.419C1408.66 169.419 1419.16 180.243 1419.16 193.379C1419.16 206.526 1408.52 217.489 1395.04 217.489ZM1395.17 171.803C1382.88 171.803 1373.58 181.564 1373.58 193.516C1373.58 205.463 1382.82 215.093 1395.04 215.093C1407.34 215.093 1416.64 205.34 1416.64 193.379C1416.64 181.432 1407.39 171.803 1395.17 171.803ZM1400.49 195.845L1407.29 205.337H1401.55L1395.44 196.629H1390.2V205.337H1385.4V180.175H1396.62C1402.49 180.175 1406.34 183.166 1406.34 188.202C1406.37 192.327 1403.97 194.847 1400.52 195.845H1400.49ZM1396.44 184.492H1390.2V192.451H1396.44C1399.55 192.451 1401.41 190.927 1401.41 188.467C1401.41 185.879 1399.55 184.492 1396.44 184.492Z" fill="white"/>
<path d="M1020.5 323.304H1058.5V102.043H1020.5V323.304Z" fill="white"/>
</svg>
